<svg xmlns="http://www.w3.org/2000/svg" viewBox="0 0 1100 1620">
  <defs>
    <linearGradient id="bgGrad" x1="0" y1="0" x2="0" y2="1">
      <stop offset="0%" stop-color="#0f172a"/>
      <stop offset="100%" stop-color="#1e293b"/>
    </linearGradient>
    <filter id="shadow">
      <feDropShadow dx="0" dy="2" stdDeviation="4" flood-color="#000" flood-opacity="0.35"/>
    </filter>
    <filter id="glow">
      <feGaussianBlur stdDeviation="2.5" result="blur"/>
      <feMerge><feMergeNode in="blur"/><feMergeNode in="SourceGraphic"/></feMerge>
    </filter>
    <marker id="arrowPurple" markerWidth="11" markerHeight="7" refX="10" refY="3.5" orient="auto">
      <polygon points="0 0, 11 3.5, 0 7" fill="#a855f7"/>
    </marker>
    <marker id="arrowCyan" markerWidth="11" markerHeight="7" refX="10" refY="3.5" orient="auto">
      <polygon points="0 0, 11 3.5, 0 7" fill="#22d3ee"/>
    </marker>
    <marker id="arrowAmber" markerWidth="11" markerHeight="7" refX="10" refY="3.5" orient="auto">
      <polygon points="0 0, 11 3.5, 0 7" fill="#f59e0b"/>
    </marker>
    <marker id="arrowGreen" markerWidth="11" markerHeight="7" refX="10" refY="3.5" orient="auto">
      <polygon points="0 0, 11 3.5, 0 7" fill="#22c55e"/>
    </marker>
    <marker id="arrowBlue" markerWidth="11" markerHeight="7" refX="10" refY="3.5" orient="auto">
      <polygon points="0 0, 11 3.5, 0 7" fill="#3b82f6"/>
    </marker>

    <!-- ===== ACTOR SYMBOLS (110x130) ===== -->
    <symbol id="client" viewBox="0 0 110 130">
      <rect x="0" y="0" width="110" height="130" rx="12" fill="#1e1b2e" stroke="#22d3ee" stroke-width="1.6"/>
      <g transform="translate(55, 34)">
        <rect x="-18" y="-16" width="36" height="26" rx="3" fill="none" stroke="#22d3ee" stroke-width="1.3"/>
        <rect x="-14" y="-12" width="28" height="18" rx="1" fill="#22d3ee" opacity="0.05"/>
        <circle cx="0" cy="-3" r="6.5" fill="none" stroke="#22d3ee" stroke-width="1"/>
        <circle cx="0" cy="-3" r="2.5" fill="none" stroke="#22d3ee" stroke-width="0.8"/>
        <line x1="0" y1="-11" x2="0" y2="-9.5" stroke="#22d3ee" stroke-width="1"/>
        <line x1="0" y1="3.5" x2="0" y2="5" stroke="#22d3ee" stroke-width="1"/>
        <line x1="-8" y1="-3" x2="-6.5" y2="-3" stroke="#22d3ee" stroke-width="1"/>
        <line x1="6.5" y1="-3" x2="8" y2="-3" stroke="#22d3ee" stroke-width="1"/>
        <line x1="0" y1="13" x2="0" y2="18" stroke="#22d3ee" stroke-width="1.3"/>
        <line x1="-9" y1="18" x2="9" y2="18" stroke="#22d3ee" stroke-width="1.3" stroke-linecap="round"/>
      </g>
      <text x="55" y="100" text-anchor="middle" fill="#67e8f9" font-size="12" font-weight="700" font-family="'Segoe UI', sans-serif">クライアント</text>
      <text x="55" y="116" text-anchor="middle" fill="#22d3ee" font-size="8.5" opacity="0.7" font-family="'Segoe UI', sans-serif">(Client)</text>
    </symbol>
    <symbol id="authsv" viewBox="0 0 110 130">
      <rect x="0" y="0" width="110" height="130" rx="12" fill="#1e1b2e" stroke="#f59e0b" stroke-width="1.6"/>
      <g transform="translate(55, 32)">
        <path d="M0,-22 L14,-15 L14,1 Q14,14 0,20 Q-14,14 -14,1 L-14,-15 Z" fill="none" stroke="#f59e0b" stroke-width="1.4"/>
        <rect x="-6" y="-3" width="12" height="10" rx="2" fill="none" stroke="#f59e0b" stroke-width="1.2"/>
        <path d="M-3.5,-3 L-3.5,-7 Q-3.5,-12 0,-12 Q3.5,-12 3.5,-7 L3.5,-3" fill="none" stroke="#f59e0b" stroke-width="1.2"/>
        <circle cx="0" cy="2" r="1.5" fill="#f59e0b"/>
        <line x1="0" y1="3.5" x2="0" y2="6" stroke="#f59e0b" stroke-width="1.1"/>
      </g>
      <text x="55" y="100" text-anchor="middle" fill="#fcd34d" font-size="12" font-weight="700" font-family="'Segoe UI', sans-serif">認可サーバー</text>
      <text x="55" y="116" text-anchor="middle" fill="#f59e0b" font-size="8.5" opacity="0.7" font-family="'Segoe UI', sans-serif">(Auth Server)</text>
    </symbol>
    <symbol id="ressv" viewBox="0 0 110 130">
      <rect x="0" y="0" width="110" height="130" rx="12" fill="#1e1b2e" stroke="#3b82f6" stroke-width="1.6"/>
      <g transform="translate(55, 30)">
        <rect x="-18" y="-18" width="36" height="11" rx="2" fill="none" stroke="#3b82f6" stroke-width="1.2"/>
        <circle cx="-10" cy="-12.5" r="1.5" fill="#3b82f6"/><circle cx="-5" cy="-12.5" r="1.5" fill="#3b82f6"/>
        <rect x="-18" y="-3" width="36" height="11" rx="2" fill="none" stroke="#3b82f6" stroke-width="1.2"/>
        <circle cx="-10" cy="2.5" r="1.5" fill="#3b82f6"/><circle cx="-5" cy="2.5" r="1.5" fill="#3b82f6"/>
        <rect x="-18" y="12" width="36" height="11" rx="2" fill="none" stroke="#3b82f6" stroke-width="1.2"/>
        <circle cx="-10" cy="17.5" r="1.5" fill="#3b82f6"/><circle cx="-5" cy="17.5" r="1.5" fill="#3b82f6"/>
        <g transform="translate(24, 8)">
          <rect x="-5" y="-2" width="10" height="7" rx="1.5" fill="#1e1b2e" stroke="#3b82f6" stroke-width="1"/>
          <path d="M-2.5,-2 L-2.5,-5 Q-2.5,-8 0,-8 Q2.5,-8 2.5,-5 L2.5,-2" fill="none" stroke="#3b82f6" stroke-width="1"/>
        </g>
      </g>
      <text x="55" y="100" text-anchor="middle" fill="#93c5fd" font-size="12" font-weight="700" font-family="'Segoe UI', sans-serif">リソースサーバー</text>
      <text x="55" y="116" text-anchor="middle" fill="#3b82f6" font-size="8.5" opacity="0.7" font-family="'Segoe UI', sans-serif">(Resource Server)</text>
    </symbol>
    <symbol id="dimbox" viewBox="0 0 110 130">
      <rect x="0" y="0" width="110" height="130" rx="12" fill="#131a2b" stroke="#1e293b" stroke-width="1" stroke-dasharray="5,4"/>
    </symbol>
  </defs>

  <rect width="1100" height="1620" fill="url(#bgGrad)"/>

  <!-- ===== HEADER ===== -->
  <text x="36" y="42" fill="#f8fafc" font-size="24" font-weight="700" font-family="'Segoe UI', sans-serif">Token Introspection フロー</text>
  <text x="36" y="66" fill="#94a3b8" font-size="13" font-family="'Segoe UI', sans-serif">トークンイントロスペクション — リソースサーバーによるトークン検証</text>
  <rect x="520" y="28" width="84" height="24" rx="12" fill="#1e3a5f" stroke="#3b82f6" stroke-width="1"/>
  <text x="562" y="44" text-anchor="middle" fill="#93c5fd" font-size="11" font-weight="600" font-family="'Segoe UI', sans-serif">RFC 7662</text>
  <rect x="612" y="28" width="160" height="24" rx="12" fill="#1a2e05" stroke="#22c55e" stroke-width="1"/>
  <text x="692" y="44" text-anchor="middle" fill="#86efac" font-size="11" font-weight="600" font-family="'Segoe UI', sans-serif">Token Introspection</text>

  <!-- ====================
    GRID PER PHASE:
      左列 x=55, 右列 x=530
      上段 y=base+70, 下段 y=base+310
      カード 110x130

    Phase高さ: 720, Y bases: 88, 808
    サイドバー: x=740, w=340
  ==================== -->

  <!-- ================================================================ -->
  <!-- PHASE 1 — APIリクエスト + Introspection (Token Validation)       -->
  <!-- ================================================================ -->
  <g transform="translate(0, 88)">
    <rect x="36" y="0" width="380" height="36" rx="8" fill="#22d3ee" opacity="0.08" stroke="#22d3ee" stroke-width="1"/>
    <text x="56" y="24" fill="#67e8f9" font-size="15" font-weight="700" font-family="'Segoe UI', sans-serif">Phase 1</text>
    <text x="136" y="24" fill="#67e8f9" font-size="12" font-family="'Segoe UI', sans-serif">APIリクエスト + Introspection (Token Validation)</text>

    <!-- actors -->
    <use href="#dimbox"  x="55"  y="70"  width="110" height="130"/>
    <use href="#authsv"  x="530" y="70"  width="110" height="130" filter="url(#shadow)"/>
    <use href="#client"  x="55"  y="310" width="110" height="130" filter="url(#shadow)"/>
    <use href="#ressv"   x="530" y="310" width="110" height="130" filter="url(#shadow)"/>

    <!-- ① クライアント → リソースサーバー (水平下段) -->
    <path d="M 170 355 L 524 355" fill="none" stroke="#3b82f6" stroke-width="2.5" marker-end="url(#arrowBlue)"/>
    <circle cx="348" cy="336" r="15" fill="#22d3ee"/>
    <text x="348" y="341" text-anchor="middle" fill="#fff" font-size="12" font-weight="700" font-family="'Segoe UI', sans-serif">1</text>
    <text x="348" y="375" text-anchor="middle" fill="#93c5fd" font-size="11" font-weight="600" font-family="'Segoe UI', sans-serif">① APIリクエスト (Bearer Token)</text>
    <rect x="220" y="384" width="320" height="24" rx="5" fill="#0f172a" stroke="#334155" stroke-width="1"/>
    <text x="380" y="401" text-anchor="middle" fill="#94a3b8" font-size="9" font-family="'Fira Code', monospace">Authorization: Bearer <tspan fill="#3b82f6">{access_token}</tspan></text>

    <!-- ② リソースサーバー → 認可サーバー (右辺・上方向) -->
    <path d="M 585 305 L 585 205" fill="none" stroke="#f59e0b" stroke-width="2.5" marker-end="url(#arrowAmber)"/>
    <circle cx="605" cy="255" r="15" fill="#22d3ee"/>
    <text x="605" y="260" text-anchor="middle" fill="#fff" font-size="12" font-weight="700" font-family="'Segoe UI', sans-serif">2</text>

    <!-- ② 説明ボックス -->
    <g transform="translate(200, 210)">
      <rect x="-6" y="-14" width="370" height="90" rx="6" fill="#0f172a" stroke="#f59e0b" stroke-width="1" opacity="0.92"/>
      <text x="6" y="2" fill="#fcd34d" font-size="11" font-weight="600" font-family="'Segoe UI', sans-serif">② Introspection リクエスト (POST /introspect)</text>
      <text x="6" y="22" fill="#94a3b8" font-size="9" font-family="'Fira Code', monospace">POST /introspect HTTP/1.1</text>
      <text x="6" y="36" fill="#94a3b8" font-size="9" font-family="'Fira Code', monospace">Authorization: Basic <tspan fill="#f59e0b">{client_credentials}</tspan></text>
      <text x="6" y="50" fill="#94a3b8" font-size="9" font-family="'Fira Code', monospace">Content-Type: application/x-www-form-urlencoded</text>
      <text x="6" y="68" fill="#94a3b8" font-size="9" font-family="'Fira Code', monospace">token=<tspan fill="#22d3ee">{access_token}</tspan>&amp;token_type_hint=access_token</text>
    </g>

    <!-- ③ 認可サーバー → リソースサーバー (右辺・下方向 返却) -->
    <path d="M 575 205 L 575 305" fill="none" stroke="#f59e0b" stroke-width="2.5" stroke-dasharray="8,4" marker-end="url(#arrowAmber)"/>
    <circle cx="555" cy="255" r="15" fill="#22d3ee"/>
    <text x="555" y="260" text-anchor="middle" fill="#fff" font-size="12" font-weight="700" font-family="'Segoe UI', sans-serif">3</text>

    <!-- ③ 説明ボックス (レスポンス) -->
    <g transform="translate(200, 420)">
      <rect x="-6" y="-14" width="370" height="128" rx="6" fill="#0f172a" stroke="#f59e0b" stroke-width="1" opacity="0.92"/>
      <text x="6" y="2" fill="#fcd34d" font-size="11" font-weight="600" font-family="'Segoe UI', sans-serif">③ Introspection レスポンス</text>
      <text x="6" y="20" fill="#94a3b8" font-size="9" font-family="'Fira Code', monospace">{</text>
      <text x="6" y="34" fill="#94a3b8" font-size="9" font-family="'Fira Code', monospace">  "active": <tspan fill="#22c55e">true</tspan>,</text>
      <text x="6" y="48" fill="#94a3b8" font-size="9" font-family="'Fira Code', monospace">  "scope": <tspan fill="#22d3ee">"read write"</tspan>,</text>
      <text x="6" y="62" fill="#94a3b8" font-size="9" font-family="'Fira Code', monospace">  "client_id": <tspan fill="#22d3ee">"oauth-lab-client"</tspan>,</text>
      <text x="6" y="76" fill="#94a3b8" font-size="9" font-family="'Fira Code', monospace">  "username": <tspan fill="#22d3ee">"testuser"</tspan>,</text>
      <text x="6" y="90" fill="#94a3b8" font-size="9" font-family="'Fira Code', monospace">  "token_type": <tspan fill="#22d3ee">"Bearer"</tspan>,</text>
      <text x="6" y="104" fill="#94a3b8" font-size="9" font-family="'Fira Code', monospace">  "exp": <tspan fill="#f59e0b">1711036800</tspan></text>
      <text x="6" y="118" fill="#94a3b8" font-size="9" font-family="'Fira Code', monospace">}</text>
    </g>

    <!-- ===== SIDEBAR ===== -->
    <g transform="translate(740, 0)">
      <rect x="0" y="0" width="340" height="700" rx="10" fill="#0f172a" stroke="#334155" stroke-width="1"/>
      <text x="170" y="28" text-anchor="middle" fill="#e2e8f0" font-size="14" font-weight="700" font-family="'Segoe UI', sans-serif">全体フロー</text>
      <line x1="16" y1="40" x2="324" y2="40" stroke="#334155" stroke-width="1"/>

      <!-- 1 ACTIVE -->
      <rect x="12" y="50" width="316" height="56" rx="6" fill="#22d3ee" opacity="0.08" stroke="#22d3ee" stroke-width="0.8"/>
      <circle cx="30" cy="72" r="11" fill="#22d3ee"/><text x="30" y="77" text-anchor="middle" fill="#fff" font-size="10" font-weight="700">1</text>
      <text x="48" y="68" fill="#f8fafc" font-size="10.5" font-weight="600" font-family="'Segoe UI', sans-serif">APIリクエスト (Bearer Token)</text>
      <text x="48" y="82" fill="#67e8f9" font-size="8.5" font-family="'Segoe UI', sans-serif">クライアントがBearerトークンでAPIコール</text>
      <text x="48" y="94" fill="#475569" font-size="7.5" font-family="'Fira Code', monospace">→ GET /resource Authorization: Bearer eyJ...</text>

      <!-- 2 ACTIVE -->
      <rect x="12" y="112" width="316" height="56" rx="6" fill="#22d3ee" opacity="0.08" stroke="#22d3ee" stroke-width="0.8"/>
      <circle cx="30" cy="134" r="11" fill="#22d3ee"/><text x="30" y="139" text-anchor="middle" fill="#fff" font-size="10" font-weight="700">2</text>
      <text x="48" y="130" fill="#f8fafc" font-size="10.5" font-weight="600" font-family="'Segoe UI', sans-serif">Introspection リクエスト (POST)</text>
      <text x="48" y="144" fill="#67e8f9" font-size="8.5" font-family="'Segoe UI', sans-serif">リソースサーバーが認可サーバーにトークン検証を依頼</text>
      <text x="48" y="156" fill="#475569" font-size="7.5" font-family="'Fira Code', monospace">→ POST /introspect token={access_token}</text>

      <!-- 3 ACTIVE -->
      <rect x="12" y="174" width="316" height="56" rx="6" fill="#22d3ee" opacity="0.08" stroke="#22d3ee" stroke-width="0.8"/>
      <circle cx="30" cy="196" r="11" fill="#22d3ee"/><text x="30" y="201" text-anchor="middle" fill="#fff" font-size="10" font-weight="700">3</text>
      <text x="48" y="192" fill="#f8fafc" font-size="10.5" font-weight="600" font-family="'Segoe UI', sans-serif">Introspection レスポンス</text>
      <text x="48" y="206" fill="#67e8f9" font-size="8.5" font-family="'Segoe UI', sans-serif">認可サーバーがトークンのメタデータを返却</text>
      <text x="48" y="218" fill="#475569" font-size="7.5" font-family="'Fira Code', monospace">← 200 {"active":true,"scope":"read write",...}</text>

      <!-- 4 dim -->
      <circle cx="30" cy="250" r="11" fill="#334155"/><text x="30" y="255" text-anchor="middle" fill="#64748b" font-size="10" font-weight="700">4</text>
      <text x="48" y="254" fill="#64748b" font-size="10" font-family="'Segoe UI', sans-serif">保護リソース返却</text>

      <!-- Legend -->
      <line x1="16" y1="280" x2="324" y2="280" stroke="#334155" stroke-width="1"/>
      <text x="16" y="300" fill="#94a3b8" font-size="10" font-weight="600" font-family="'Segoe UI', sans-serif">凡例</text>
      <line x1="16" y1="316" x2="42" y2="316" stroke="#3b82f6" stroke-width="2.5"/>
      <text x="50" y="320" fill="#93c5fd" font-size="9" font-family="'Segoe UI', sans-serif">APIリクエスト</text>
      <line x1="16" y1="336" x2="42" y2="336" stroke="#f59e0b" stroke-width="2.5"/>
      <text x="50" y="340" fill="#fcd34d" font-size="9" font-family="'Segoe UI', sans-serif">Introspection (トークン検証)</text>
      <line x1="16" y1="356" x2="42" y2="356" stroke="#f59e0b" stroke-width="2.5" stroke-dasharray="5,3"/>
      <text x="50" y="360" fill="#fcd34d" font-size="9" font-family="'Segoe UI', sans-serif">Introspection レスポンス</text>
      <line x1="16" y1="376" x2="42" y2="376" stroke="#3b82f6" stroke-width="2.5" stroke-dasharray="5,3"/>
      <text x="50" y="380" fill="#93c5fd" font-size="9" font-family="'Segoe UI', sans-serif">保護リソース返却</text>

      <!-- Security -->
      <line x1="16" y1="400" x2="324" y2="400" stroke="#334155" stroke-width="1"/>
      <text x="16" y="422" fill="#e2e8f0" font-size="11" font-weight="700" font-family="'Segoe UI', sans-serif">セキュリティポイント</text>
      <rect x="16" y="434" width="308" height="50" rx="6" fill="#1e1b2e" stroke="#f59e0b" stroke-width="0.8"/>
      <text x="28" y="452" fill="#fcd34d" font-size="9.5" font-weight="600" font-family="'Segoe UI', sans-serif">Introspection エンドポイント認証</text>
      <text x="28" y="466" fill="#94a3b8" font-size="8" font-family="'Segoe UI', sans-serif">リソースサーバーはクライアント認証情報でエンドポイントに</text>
      <text x="28" y="478" fill="#94a3b8" font-size="8" font-family="'Segoe UI', sans-serif">アクセス — 不正なトークン検証リクエストを防止</text>
      <rect x="16" y="490" width="308" height="50" rx="6" fill="#1e1b2e" stroke="#22d3ee" stroke-width="0.8"/>
      <text x="28" y="508" fill="#67e8f9" font-size="9.5" font-weight="600" font-family="'Segoe UI', sans-serif">リアルタイム検証</text>
      <text x="28" y="522" fill="#94a3b8" font-size="8" font-family="'Segoe UI', sans-serif">JWTのローカル検証と異なり、認可サーバーに毎回問い合わせ</text>
      <text x="28" y="534" fill="#94a3b8" font-size="8" font-family="'Segoe UI', sans-serif">→ トークン失効を即座に反映可能</text>
      <rect x="16" y="546" width="308" height="38" rx="6" fill="#1e1b2e" stroke="#22c55e" stroke-width="0.8"/>
      <text x="28" y="564" fill="#86efac" font-size="9.5" font-weight="600" font-family="'Segoe UI', sans-serif">active=false でアクセス拒否</text>
      <text x="28" y="578" fill="#94a3b8" font-size="8" font-family="'Segoe UI', sans-serif">無効・期限切れトークンは active:false で返却される</text>
    </g>
  </g>

  <!-- separator -->
  <line x1="36" y1="796" x2="700" y2="796" stroke="#334155" stroke-width="1" stroke-dasharray="8,8"/>

  <!-- ================================================================ -->
  <!-- PHASE 2 — レスポンス返却 (Response)                              -->
  <!-- ================================================================ -->
  <g transform="translate(0, 808)">
    <rect x="36" y="0" width="260" height="36" rx="8" fill="#3b82f6" opacity="0.08" stroke="#3b82f6" stroke-width="1"/>
    <text x="56" y="24" fill="#93c5fd" font-size="15" font-weight="700" font-family="'Segoe UI', sans-serif">Phase 2</text>
    <text x="136" y="24" fill="#93c5fd" font-size="12" font-family="'Segoe UI', sans-serif">レスポンス返却</text>

    <!-- actors -->
    <use href="#dimbox"  x="55"  y="70"  width="110" height="130"/>
    <use href="#dimbox"  x="530" y="70"  width="110" height="130"/>
    <text x="585" y="145" text-anchor="middle" fill="#334155" font-size="10" font-family="'Segoe UI', sans-serif">認可サーバー</text>
    <use href="#client"  x="55"  y="310" width="110" height="130" filter="url(#shadow)"/>
    <use href="#ressv"   x="530" y="310" width="110" height="130" filter="url(#shadow)"/>

    <!-- ④ リソースサーバー → クライアント (水平左・dashed) -->
    <path d="M 524 420 L 170 420" fill="none" stroke="#3b82f6" stroke-width="2.5" stroke-dasharray="8,4" marker-end="url(#arrowCyan)"/>
    <circle cx="348" cy="438" r="15" fill="#3b82f6"/>
    <text x="348" y="443" text-anchor="middle" fill="#fff" font-size="12" font-weight="700" font-family="'Segoe UI', sans-serif">4</text>
    <text x="348" y="414" text-anchor="middle" fill="#93c5fd" font-size="11" font-weight="600" font-family="'Segoe UI', sans-serif">④ 保護リソース返却 (200 OK)</text>
    <rect x="240" y="455" width="280" height="24" rx="5" fill="#0f172a" stroke="#334155" stroke-width="1"/>
    <text x="380" y="472" text-anchor="middle" fill="#94a3b8" font-size="9" font-family="'Fira Code', monospace">200 OK {"data": <tspan fill="#3b82f6">"protected resource"</tspan>}</text>

    <!-- JWT vs Introspection 比較テーブル -->
    <g transform="translate(100, 500)">
      <rect x="0" y="0" width="500" height="170" rx="8" fill="#0f172a" stroke="#334155" stroke-width="1"/>
      <text x="250" y="24" text-anchor="middle" fill="#e2e8f0" font-size="12" font-weight="700" font-family="'Segoe UI', sans-serif">JWT ローカル検証 vs Token Introspection 比較</text>
      <line x1="16" y1="34" x2="484" y2="34" stroke="#334155" stroke-width="1"/>

      <!-- Table Header -->
      <rect x="16" y="42" width="150" height="22" rx="3" fill="#1e293b"/>
      <text x="91" y="57" text-anchor="middle" fill="#94a3b8" font-size="9" font-weight="600" font-family="'Segoe UI', sans-serif">項目</text>
      <rect x="172" y="42" width="150" height="22" rx="3" fill="#1e293b"/>
      <text x="247" y="57" text-anchor="middle" fill="#22d3ee" font-size="9" font-weight="600" font-family="'Segoe UI', sans-serif">JWT ローカル検証</text>
      <rect x="328" y="42" width="156" height="22" rx="3" fill="#1e293b"/>
      <text x="406" y="57" text-anchor="middle" fill="#f59e0b" font-size="9" font-weight="600" font-family="'Segoe UI', sans-serif">Token Introspection</text>

      <!-- Row 1: 検証方式 -->
      <text x="28" y="82" fill="#94a3b8" font-size="9" font-family="'Segoe UI', sans-serif">検証方式</text>
      <text x="184" y="82" fill="#67e8f9" font-size="9" font-family="'Segoe UI', sans-serif">署名検証 (公開鍵)</text>
      <text x="340" y="82" fill="#fcd34d" font-size="9" font-family="'Segoe UI', sans-serif">認可サーバーへ問い合わせ</text>

      <!-- Row 2: ネットワーク -->
      <text x="28" y="102" fill="#94a3b8" font-size="9" font-family="'Segoe UI', sans-serif">ネットワーク</text>
      <text x="184" y="102" fill="#67e8f9" font-size="9" font-family="'Segoe UI', sans-serif">不要 (ローカル)</text>
      <text x="340" y="102" fill="#fcd34d" font-size="9" font-family="'Segoe UI', sans-serif">毎回必要</text>

      <!-- Row 3: 失効反映 -->
      <text x="28" y="122" fill="#94a3b8" font-size="9" font-family="'Segoe UI', sans-serif">失効反映</text>
      <text x="184" y="122" fill="#67e8f9" font-size="9" font-family="'Segoe UI', sans-serif">期限切れまで無効化困難</text>
      <text x="340" y="122" fill="#fcd34d" font-size="9" font-family="'Segoe UI', sans-serif">即座に反映可能</text>

      <!-- Row 4: パフォーマンス -->
      <text x="28" y="142" fill="#94a3b8" font-size="9" font-family="'Segoe UI', sans-serif">パフォーマンス</text>
      <text x="184" y="142" fill="#67e8f9" font-size="9" font-family="'Segoe UI', sans-serif">高速</text>
      <text x="340" y="142" fill="#fcd34d" font-size="9" font-family="'Segoe UI', sans-serif">ネットワーク遅延あり</text>

      <!-- Row 5: トークン形式 -->
      <text x="28" y="162" fill="#94a3b8" font-size="9" font-family="'Segoe UI', sans-serif">トークン形式</text>
      <text x="184" y="162" fill="#67e8f9" font-size="9" font-family="'Segoe UI', sans-serif">JWT (自己完結型)</text>
      <text x="340" y="162" fill="#fcd34d" font-size="9" font-family="'Segoe UI', sans-serif">任意 (opaque も可)</text>
    </g>

    <!-- SIDEBAR -->
    <g transform="translate(740, 0)">
      <rect x="0" y="0" width="340" height="470" rx="10" fill="#0f172a" stroke="#334155" stroke-width="1"/>
      <text x="170" y="28" text-anchor="middle" fill="#e2e8f0" font-size="14" font-weight="700" font-family="'Segoe UI', sans-serif">全体フロー</text>
      <line x1="16" y1="40" x2="324" y2="40" stroke="#334155" stroke-width="1"/>

      <!-- 1 dim -->
      <circle cx="30" cy="62" r="11" fill="#334155"/><text x="30" y="67" text-anchor="middle" fill="#64748b" font-size="10" font-weight="700">1</text>
      <text x="48" y="66" fill="#64748b" font-size="10" font-family="'Segoe UI', sans-serif">APIリクエスト</text>

      <!-- 2 dim -->
      <circle cx="30" cy="92" r="11" fill="#334155"/><text x="30" y="97" text-anchor="middle" fill="#64748b" font-size="10" font-weight="700">2</text>
      <text x="48" y="96" fill="#64748b" font-size="10" font-family="'Segoe UI', sans-serif">Introspection リクエスト</text>

      <!-- 3 dim -->
      <circle cx="30" cy="122" r="11" fill="#334155"/><text x="30" y="127" text-anchor="middle" fill="#64748b" font-size="10" font-weight="700">3</text>
      <text x="48" y="126" fill="#64748b" font-size="10" font-family="'Segoe UI', sans-serif">Introspection レスポンス</text>

      <!-- 4 ACTIVE -->
      <rect x="12" y="142" width="316" height="56" rx="6" fill="#3b82f6" opacity="0.08" stroke="#3b82f6" stroke-width="0.8"/>
      <circle cx="30" cy="164" r="11" fill="#3b82f6"/><text x="30" y="169" text-anchor="middle" fill="#fff" font-size="10" font-weight="700">4</text>
      <text x="48" y="160" fill="#f8fafc" font-size="10.5" font-weight="600" font-family="'Segoe UI', sans-serif">保護リソース返却 (200 OK)</text>
      <text x="48" y="174" fill="#93c5fd" font-size="8.5" font-family="'Segoe UI', sans-serif">トークンが有効な場合、保護リソースを返却</text>
      <text x="48" y="186" fill="#475569" font-size="7.5" font-family="'Fira Code', monospace">← 200 {"data":"protected resource"}</text>

      <!-- 比較まとめ -->
      <line x1="16" y1="210" x2="324" y2="210" stroke="#334155" stroke-width="1"/>
      <text x="16" y="232" fill="#e2e8f0" font-size="11" font-weight="700" font-family="'Segoe UI', sans-serif">Introspection の利点</text>
      <rect x="16" y="244" width="308" height="50" rx="6" fill="#1e1b2e" stroke="#22c55e" stroke-width="0.8"/>
      <text x="28" y="262" fill="#86efac" font-size="9.5" font-weight="600" font-family="'Segoe UI', sans-serif">Opaque Token 対応</text>
      <text x="28" y="276" fill="#94a3b8" font-size="8" font-family="'Segoe UI', sans-serif">JWTだけでなく、ランダム文字列トークンも検証可能</text>
      <text x="28" y="288" fill="#94a3b8" font-size="8" font-family="'Segoe UI', sans-serif">トークン形式に依存しない汎用的な検証方式</text>
      <rect x="16" y="300" width="308" height="50" rx="6" fill="#1e1b2e" stroke="#f59e0b" stroke-width="0.8"/>
      <text x="28" y="318" fill="#fcd34d" font-size="9.5" font-weight="600" font-family="'Segoe UI', sans-serif">即時失効 (Revocation)</text>
      <text x="28" y="332" fill="#94a3b8" font-size="8" font-family="'Segoe UI', sans-serif">トークンが失効された場合、次回の Introspection で</text>
      <text x="28" y="344" fill="#94a3b8" font-size="8" font-family="'Segoe UI', sans-serif">即座に active:false が返され、アクセスが拒否される</text>
      <rect x="16" y="356" width="308" height="50" rx="6" fill="#1e1b2e" stroke="#3b82f6" stroke-width="0.8"/>
      <text x="28" y="374" fill="#93c5fd" font-size="9.5" font-weight="600" font-family="'Segoe UI', sans-serif">追加メタデータ取得</text>
      <text x="28" y="388" fill="#94a3b8" font-size="8" font-family="'Segoe UI', sans-serif">scope, client_id, username 等のメタデータを</text>
      <text x="28" y="400" fill="#94a3b8" font-size="8" font-family="'Segoe UI', sans-serif">レスポンスから取得してアクセス制御に利用可能</text>
    </g>
  </g>
</svg>
